<?xml version="1.0" encoding="UTF-8" standalone="no"?>
<!-- Creator: CorelDRAW 2019 (64 Bit) -->

<svg
   xmlns:dc="http://purl.org/dc/elements/1.1/"
   xmlns:cc="http://creativecommons.org/ns#"
   xmlns:rdf="http://www.w3.org/1999/02/22-rdf-syntax-ns#"
   xmlns:svg="http://www.w3.org/2000/svg"
   xmlns="http://www.w3.org/2000/svg"
   xmlns:xlink="http://www.w3.org/1999/xlink"
   xmlns:sodipodi="http://sodipodi.sourceforge.net/DTD/sodipodi-0.dtd"
   xmlns:inkscape="http://www.inkscape.org/namespaces/inkscape"
   xml:space="preserve"
   width="192.98796"
   height="46"
   version="1.1"
   style="clip-rule:evenodd;fill-rule:evenodd;image-rendering:optimizeQuality;shape-rendering:geometricPrecision;text-rendering:geometricPrecision"
   viewBox="0 0 4642.0918 1106.4744"
   id="svg133"
   sodipodi:docname="kaviagens_logo_horizontal.svg"
   inkscape:version="0.92.4 (5da689c313, 2019-01-14)"><metadata
   id="metadata137"><rdf:RDF><cc:Work
       rdf:about=""><dc:format>image/svg+xml</dc:format><dc:type
         rdf:resource="http://purl.org/dc/dcmitype/StillImage" /><dc:title></dc:title></cc:Work></rdf:RDF></metadata><sodipodi:namedview
   pagecolor="#ffffff"
   bordercolor="#666666"
   borderopacity="1"
   objecttolerance="10"
   gridtolerance="10"
   guidetolerance="10"
   inkscape:pageopacity="0"
   inkscape:pageshadow="2"
   inkscape:window-width="1600"
   inkscape:window-height="837"
   id="namedview135"
   showgrid="false"
   units="px"
   fit-margin-top="0"
   fit-margin-left="0"
   fit-margin-right="0"
   fit-margin-bottom="0"
   inkscape:zoom="3.3325322"
   inkscape:cx="89.255173"
   inkscape:cy="1.5214301"
   inkscape:window-x="-8"
   inkscape:window-y="-8"
   inkscape:window-maximized="1"
   inkscape:current-layer="Camada_x0020_1" />
 <defs
   id="defs9">
  <style
   type="text/css"
   id="style2">
   <![CDATA[
    .fil5 {fill:#21A19E}
    .fil1 {fill:#5E1F86}
    .fil2 {fill:#D12C42}
    .fil6 {fill:#D13A2C}
    .fil3 {fill:#E3034D}
    .fil7 {fill:#F3A112}
    .fil4 {fill:#F4A912}
    .fil0 {fill:#4B4B4D;fill-rule:nonzero}
    .fil8 {fill:url(#id0)}
   ]]>
  </style>
  <linearGradient
   id="id0"
   gradientUnits="userSpaceOnUse"
   x1="9351.4199"
   y1="4003.3301"
   x2="9351.46"
   y2="-470.84"
   gradientTransform="translate(20.415219,450.08738)">
   <stop
   offset="0"
   style="stop-opacity:1; stop-color:#D12C42"
   id="stop4" />
   <stop
   offset="1"
   style="stop-opacity:1; stop-color:#FFF212"
   id="stop6" />
  </linearGradient>
 <linearGradient
   inkscape:collect="always"
   xlink:href="#id0"
   id="linearGradient4769"
   gradientUnits="userSpaceOnUse"
   gradientTransform="matrix(0.33505539,0,0,0.33505539,-109.29639,3113.3519)"
   x1="9351.4199"
   y1="4003.3301"
   x2="9351.46"
   y2="-470.84" /></defs>
 <g
   id="Camada_x0020_1"
   transform="translate(-11.566768,-3488.8951)">
  <metadata
   id="CorelCorpID_0Corel-Layer" />
  
  
  
  
  
  
  
  
  
  
  
  
  
  
  
  
  
  
  
  
  
  
  
  
  
  
  
  
  
  
  
  
  
  
  
  
  
  
  
  
  
  
  
  
  
  
  
  
  
  
  
  
  
  
  
  
  
  
  
  <g
   id="g4893"
   transform="matrix(0.95833362,0,0,0.95833362,-234.29318,465.37682)"><g
     transform="matrix(0.25129154,0,0,0.25129154,256.55035,3154.9772)"
     id="g4705"><path
       style="fill:#5e1f86"
       inkscape:connector-curvature="0"
       class="fil1"
       d="m 3228.48,1605.5 c -1.94,-7.82 0.44,-13.58 7.25,-17.45 l 21.74,-10.19 c 7.68,-2.81 13.92,-0.44 18.78,7.25 l 4.28,10.19 -47.75,20.26 -4.3,-10.05 z m 105.72,-34.88 -44.95,20.39 -4.29,-10.19 c -6.81,-12.58 -17.45,-16.87 -31.94,-13.01 l -21.73,10.05 c -12.55,7.82 -16.4,18.46 -11.53,31.93 l 4.28,10.2 -44.95,20.26 c -12.55,6.78 -16.86,17.3 -13.01,31.79 l 39.18,85.6 c 6.77,12.55 17.3,16.4 31.79,11.53 l 155.09,-69.49 c 12.57,-6.81 16.4,-17.44 11.53,-31.93 l -37.56,-85.46 c -6.81,-12.58 -17.44,-16.43 -31.93,-11.67 z"
       id="path14" /><path
       style="fill:#5e1f86"
       inkscape:connector-curvature="0"
       class="fil1"
       d="m 3725.41,2061.91 c 1.92,-24.23 14.95,-37.26 39.17,-39.18 h 68.02 c 24.22,1.92 37.23,14.96 39.18,39.18 v 30.32 H 3725.4 v -30.32 z m 317.28,30.32 h -140.46 v -30.32 c -3.96,-42.57 -27.06,-65.77 -69.63,-69.64 h -68.02 c -42.56,3.86 -65.78,27.06 -69.63,69.64 v 30.32 h -140.46 c -42.57,4.85 -65.78,28.54 -69.64,71.11 v 268.05 c 3.85,42.42 27.06,65.63 69.64,69.49 h 488.2 c 42.57,-3.86 65.67,-27.07 69.64,-69.49 v -268.05 c -3.97,-43.47 -27.06,-67.15 -69.64,-71.11 z"
       id="path16" /><path
       style="fill:#d12c42"
       inkscape:connector-curvature="0"
       class="fil2"
       d="m 1765.07,4191.84 c -1.95,-12.58 2.81,-20.84 14.48,-24.68 l 34.75,-8.73 c 11.53,-1.92 19.79,2.95 24.55,14.49 l 2.95,14.49 -72.45,18.92 z m 118.72,-14.48 -26.03,7.24 -4.44,-14.48 c -6.65,-21.3 -21.15,-30.03 -43.46,-26.17 l -33.27,8.73 c -20.26,6.77 -28.97,20.71 -26.02,41.99 l 4.29,15.96 -26.03,5.77 c -21.3,7.71 -30.02,22.2 -26.17,43.47 l 33.42,133.36 c 6.66,20.26 20.69,28.52 41.99,24.55 l 154.95,-37.56 c 21.3,-7.83 30.01,-22.31 26.16,-43.47 l -33.41,-133.37 c -6.67,-20.25 -20.69,-28.97 -41.99,-26.01 z"
       id="path18" /><path
       style="fill:#5e1f86"
       inkscape:connector-curvature="0"
       class="fil1"
       d="m 2466.31,2445.88 -84.13,-44.95 8.73,-17.45 c 8.72,-13.47 20.26,-17.3 34.75,-11.54 l 39.17,21.74 c 13.48,8.73 17.45,20.26 11.54,34.75 l -10.05,17.45 z m 44.95,23.07 -27.65,-14.49 10.2,-17.3 c 9.62,-26.17 3.39,-46.43 -18.78,-60.91 l -40.65,-20.26 c -25.13,-10.64 -45.39,-4.3 -60.77,18.77 l -8.73,17.45 -27.5,-14.49 c -26.16,-10.64 -46.42,-4.29 -60.91,18.77 l -150.66,286.98 c -10.64,26.02 -4.44,46.28 18.78,60.77 l 173.87,92.85 c 26.16,9.62 46.86,3.27 62.39,-18.92 l 150.66,-288.32 c 9.62,-25.12 2.81,-45.37 -20.26,-60.9 z"
       id="path20" /><path
       style="fill:#5e1f86"
       inkscape:connector-curvature="0"
       class="fil1"
       d="m 1585.28,1538.82 c -10.52,2.81 -20.69,7.68 -30.32,14.49 -9.73,6.77 -17.44,14.49 -23.21,23.2 l -37.69,-52.18 c -4.87,-8.73 -3.4,-16.43 4.28,-23.21 l 24.69,-18.78 c 9.62,-4.87 17.87,-3.42 24.69,4.29 z m 13.15,-2.95 -40.66,-56.48 c -11.53,-14.49 -25.58,-16.86 -41.98,-7.25 l -24.69,17.45 c -14.49,12.55 -16.86,27.04 -7.25,43.47 l 40.66,56.47 c -13.59,28.97 -12.12,58.39 4.29,88.41 1.01,0.9 1.94,2.38 2.95,4.29 l 91.23,126.11 c 12.57,14.49 26.6,16.86 41.99,7.25 l 102.9,-73.93 c 14.49,-12.57 16.97,-26.59 7.25,-41.99 l -91.23,-127.59 c -1.01,-1.91 -1.94,-3.39 -2.95,-4.28 -22.16,-24.24 -49.7,-34.75 -82.5,-31.94 z"
       id="path22" /><path
       style="fill:#5e1f86"
       inkscape:connector-curvature="0"
       class="fil1"
       d="m 2388.1,944.76 c -10.66,2.82 -20.84,7.67 -30.46,14.49 -9.73,6.78 -17.45,14.48 -23.21,23.21 l -37.69,-52.19 c -4.76,-8.72 -3.4,-16.43 4.43,-23.21 l 24.55,-18.77 c 9.74,-4.87 17.88,-3.43 24.69,4.28 l 37.7,52.19 z m 13.01,-2.95 -40.66,-56.48 c -11.54,-14.48 -25.56,-16.86 -41.99,-7.25 l -24.54,17.46 c -14.49,12.54 -16.99,27.03 -7.25,43.46 l 40.5,56.48 c -13.47,28.98 -12.11,58.39 4.3,88.41 1.04,0.91 1.94,2.37 2.95,4.29 l 91.23,126.11 c 12.57,14.49 26.6,16.86 42.13,7.25 l 102.77,-73.92 c 14.49,-12.57 16.97,-26.61 7.25,-41.99 l -91.23,-127.59 c -1.01,-1.91 -1.92,-3.39 -2.95,-4.29 -22.16,-24.22 -49.67,-34.75 -82.5,-31.93 z"
       id="path24" /><path
       style="fill:#5e1f86"
       inkscape:connector-curvature="0"
       class="fil1"
       d="M 1027.98,2382.01 H 975.8 v -14.49 c 0.9,-8.58 5.76,-13.45 14.49,-14.48 h 23.21 c 8.58,1.04 13.45,5.9 14.48,14.48 z m 92.71,24.68 c -2.95,-16.4 -11.1,-24.68 -24.69,-24.68 h -57.96 v -14.49 c -0.9,-15.39 -9.15,-23.65 -24.55,-24.54 h -23.21 c -15.51,0.89 -23.67,9.15 -24.69,24.54 v 14.49 h -57.96 c -13.47,0 -21.74,8.28 -24.55,24.68 l -13.15,95.66 c 1.05,14.49 9.18,22.65 24.69,24.55 H 1109 c 15.54,-1.9 23.67,-10.05 24.69,-24.55 l -13.01,-95.66 z"
       id="path26" /><path
       style="fill:#5e1f86"
       inkscape:connector-curvature="0"
       class="fil1"
       d="m 3422.61,1982.22 h -39.18 v -11.67 c 1.02,-6.78 4.44,-10.06 10.2,-10.06 h 18.78 c 6.81,0 10.2,3.28 10.2,10.06 z m 69.49,17.3 c -1.91,-11.54 -7.68,-17.3 -17.3,-17.3 h -43.47 v -11.67 c -1.05,-11.53 -7.25,-17.88 -18.93,-18.77 h -18.78 c -10.63,0.89 -16.43,7.25 -17.45,18.77 v 11.67 h -43.47 c -10.64,-1.05 -16.86,4.75 -18.77,17.3 l -10.2,72.45 c 1.02,10.64 7.25,16.44 18.93,17.46 h 162.19 c 10.63,-1.02 16.43,-6.82 17.44,-17.46 z"
       id="path28" /><path
       style="fill:#5e1f86"
       inkscape:connector-curvature="0"
       class="fil1"
       d="m 1947.52,2019.77 -55.01,14.49 -56.47,13.16 -7.25,-31.94 c -2.96,-18.35 4.28,-30.46 21.73,-36.23 l 50.72,-13 c 19.24,-2.96 31.79,4.28 37.69,21.72 l 8.59,31.79 z m 210.09,1.48 c -14.49,-32.84 -36.23,-45.37 -65.2,-37.7 l -123.16,30.46 -7.25,-31.79 c -11.54,-30.92 -33.26,-44.05 -65.2,-39.17 l -52.05,13.01 c -30.92,11.67 -44.05,33.41 -39.18,65.2 l 8.73,31.94 -123.16,31.79 c -28.98,6.81 -41.99,28.54 -39.17,65.19 l 23.2,208.76 c 11.55,30.89 33.27,43.91 65.21,39.04 l 228.87,-57.96 229.02,-57.96 c 30.89,-11.54 43.9,-33.73 39.03,-66.67 l -79.68,-194.13 z"
       id="path30" /><path
       style="fill:#d12c42"
       inkscape:connector-curvature="0"
       class="fil2"
       d="m 3190.78,2134.36 c 4.75,-14.49 14.93,-20.4 30.45,-17.45 l 41.99,10.2 c 14.49,5.76 20.26,15.82 17.3,30.31 l -4.28,20.41 -91.22,-24.7 z m 191.17,69.49 -86.94,-21.74 4.44,-18.77 c 4.75,-27.07 -5.76,-44.96 -31.94,-53.67 l -41.98,-11.54 c -27.06,-3.96 -44.95,6.67 -53.67,31.79 l -5.76,18.93 -85.46,-21.74 c -27.06,-4.86 -45.38,5.76 -55,31.79 l -42.13,165.15 c -3.84,27.06 6.81,44.95 31.93,53.67 l 301.32,78.21 c 26.17,3.85 44.05,-6.78 53.67,-31.78 l 43.47,-165.31 c 3.85,-27.03 -6.78,-45.37 -31.94,-54.99 z"
       id="path32" /><path
       style="fill:#d12c42"
       inkscape:connector-curvature="0"
       class="fil2"
       d="m 474.03,2309.56 c -3.85,-19.24 3.39,-32.25 21.73,-39.04 l 52.19,-15.96 c 19.25,-2.95 32.26,4.28 39.04,21.73 l 7.25,24.7 -112.96,31.78 z m 250.61,-46.28 -107.19,30.46 -7.24,-23.22 c -12.58,-31.93 -35.22,-44.48 -68.17,-37.69 l -53.53,14.48 c -30.92,12.57 -43.46,35.21 -37.69,68.16 l 7.25,24.55 -107.19,30.46 c -31.94,12.58 -44.48,35.21 -37.7,68.16 l 57.96,205.66 c 12.57,31.94 35.76,44.95 69.49,39.18 l 373.91,-108.67 c 30.89,-11.68 43.47,-34.31 37.7,-68.16 L 792.8,2300.99 c -12.58,-31.94 -35.32,-44.52 -68.16,-37.71 z"
       id="path34" /><path
       style="fill:#d12c42"
       inkscape:connector-curvature="0"
       class="fil2"
       d="m 1323.13,1654.73 c 0.9,-15.5 9.16,-24.23 24.55,-26.17 h 44.95 c 14.49,1.95 22.75,10.67 24.69,26.17 v 18.78 h -94.18 v -18.78 z m 146.23,18.78 h -33.27 v -18.78 c -1.91,-27.06 -16.39,-41.99 -43.47,-44.95 h -44.95 c -27.03,2.95 -41.52,17.88 -43.47,44.95 v 18.78 h -33.26 c -27.06,1.94 -41.98,16.43 -44.94,43.47 v 171.06 c 2.95,27.03 17.88,41.99 44.94,44.8 h 198.42 c 27.06,-2.81 42.14,-17.77 44.95,-44.8 v -171.06 c -2.81,-26.02 -17.88,-40.51 -44.95,-43.47 z"
       id="path36" /><path
       style="fill:#e3034d"
       inkscape:connector-curvature="0"
       class="fil3"
       d="m 2466.31,1617.03 c 0,6.78 -3.39,10.64 -10.2,11.53 h -20.26 c -6.78,-0.89 -10.64,-4.75 -11.53,-11.53 v -8.73 h 41.98 v 8.73 z m -65.2,-8.73 h 14.49 v 8.73 c 0.89,11.53 7.68,18.34 20.26,20.26 h 20.26 c 11.67,-1.92 17.87,-8.73 18.92,-20.26 v -8.73 h 15.82 c 11.68,-0.89 18.47,-7.67 20.41,-20.26 v -76.73 c -1.94,-12.58 -8.73,-19.36 -20.41,-20.41 h -89.74 c -12.57,1.05 -19.36,7.83 -20.26,20.41 v 76.73 c 0.89,12.58 7.68,19.36 20.26,20.26 z"
       id="path38" /><path
       style="fill:#d12c42"
       inkscape:connector-curvature="0"
       class="fil2"
       d="m 2651.72,1088.17 c 0,6.78 -3.39,10.64 -10.05,11.53 h -20.41 c -6.65,-0.89 -10.51,-4.75 -11.53,-11.53 v -8.73 h 41.99 z m -65.2,-8.73 H 2601 v 8.73 c 1.02,12.57 7.72,19.36 20.26,20.26 h 20.41 c 11.53,-0.89 17.76,-7.68 18.77,-20.26 v -8.73 h 15.97 c 11.54,-0.89 18.35,-7.67 20.26,-20.25 V 905.58 c -1.91,-12.55 -8.72,-19.25 -20.26,-20.26 h -89.89 c -12.55,1.02 -19.25,7.71 -20.26,20.26 v 153.61 c 1.01,12.57 7.71,19.36 20.26,20.25 z"
       id="path40" /><path
       style="fill:#d12c42"
       inkscape:connector-curvature="0"
       class="fil2"
       d="m 1257.94,2308.24 h -43.47 v -10.21 c 0,-6.77 3.83,-10.64 11.54,-11.53 h 20.26 c 7.7,0.89 11.68,4.75 11.68,11.53 v 10.21 z m 24.55,0 H 1268 v -10.21 c -1.92,-12.57 -9.16,-19.36 -21.74,-20.26 H 1226 c -12.58,0.9 -19.83,7.68 -21.74,20.26 v 10.21 h -14.49 c -12.57,0.89 -19.36,7.67 -20.26,20.26 v 150.66 c 0.9,12.57 7.68,19.36 20.26,20.26 h 92.71 c 12.57,-0.9 19.35,-7.68 20.25,-20.26 V 2328.5 c -0.9,-12.58 -7.67,-19.36 -20.25,-20.26 z"
       id="path42" /><path
       inkscape:connector-curvature="0"
       class="fil4"
       d="m 2480.81,127.59 c -31.94,-12.59 -66.68,-18.93 -104.39,-18.93 -35.76,0 -69.96,6.34 -102.9,18.93 V 98.61 c 2.95,-34.89 21.3,-53.67 55.15,-56.63 h 96.99 c 33.85,3.97 52.18,22.77 55.15,56.63 z m 41.99,18.77 V 98.6 c -4.87,-59.9 -37.24,-92.85 -97.14,-98.61 h -96.99 c -59.9,5.76 -92.27,38.71 -97.14,98.61 v 47.76 c -89.74,52.18 -141.03,131.41 -153.6,237.6 -0.91,4.86 -1.35,9.73 -1.35,14.49 v 137.64 c 5.77,59.9 38.6,92.7 98.48,98.62 h 404.22 c 59.9,-5.92 92.7,-38.72 98.62,-98.62 V 398.45 c 0,-4.76 -0.59,-9.63 -1.48,-14.49 -12.57,-106.19 -63.73,-185.41 -153.61,-237.6 z"
       id="path44"
       style="fill:#f4a912;fill-opacity:1" /><path
       style="fill:#d12c42"
       inkscape:connector-curvature="0"
       class="fil2"
       d="m 4403.45,2454.46 -46.27,-11.54 -46.43,-10.2 7.25,-27.5 c 4.87,-13.47 14.96,-19.24 30.46,-17.3 l 41.99,10.05 c 14.49,4.87 20.84,14.96 18.92,30.46 l -5.91,26.03 z m 152.14,82.64 c 1.94,-29.98 -9.15,-47.76 -33.26,-53.67 l -101.43,-24.54 7.25,-26.17 c 3.85,-27.04 -7.25,-44.8 -33.27,-53.53 L 4352.75,2369 c -27.04,-3.86 -44.8,6.81 -53.53,31.93 l -5.76,27.5 -101.42,-26.02 c -24.23,-5.92 -42.14,5.3 -53.67,33.26 l -63.73,160.87 c -3.85,26.02 6.77,43.89 31.79,53.51 l 189.83,44.96 188.36,46.42 c 26.17,3.85 43.94,-6.81 53.67,-31.94 l 17.31,-172.4 z"
       id="path46" /><path
       style="fill:#d12c42"
       inkscape:connector-curvature="0"
       class="fil2"
       d="m 2579.27,2206.81 -26.02,-5.91 -26.17,-5.77 4.44,-15.96 c 1.92,-7.68 7.68,-11.07 17.3,-10.05 l 23.21,5.76 c 8.73,2.96 12.58,8.73 11.67,17.45 l -4.43,14.49 z m 86.94,47.76 c 1.94,-17.45 -4.29,-27.5 -18.78,-30.46 l -57.96,-14.49 4.28,-14.49 c 1.95,-15.38 -4.28,-25.58 -18.77,-30.46 l -24.68,-5.76 c -14.49,-2.81 -24.55,2.95 -30.46,17.45 l -2.81,15.96 -57.96,-14.48 c -13.59,-3.97 -23.67,2.37 -30.46,18.77 l -36.22,91.22 c -2.96,15.54 2.95,25.7 17.45,30.46 l 108.67,26.17 107.19,27.49 c 15.39,1.92 25.59,-4.43 30.46,-18.91 l 10.05,-98.48 z"
       id="path48" /><path
       style="fill:#d12c42"
       inkscape:connector-curvature="0"
       class="fil2"
       d="m 1975.15,4119.39 4.29,31.79 4.28,31.94 -18.77,2.81 c -10.63,0 -16.86,-5.31 -18.78,-15.82 l -4.44,-28.98 c 0,-10.66 5.35,-17.45 15.97,-20.4 z m 17.3,-117.39 c -20.26,5.76 -28.98,16.86 -26.02,33.26 l 7.25,70.97 -17.46,2.95 c -18.34,2.95 -27.49,14.03 -27.49,33.26 l 4.29,28.98 c 2.95,18.46 14.05,27.65 33.41,27.65 l 18.77,-2.95 7.25,70.97 c 1.94,17.45 13.59,26.61 34.75,27.5 l 117.39,1.48 c 18.34,-3.85 27.5,-14.93 27.5,-33.27 l -15.82,-131.88 -15.97,-131.89 c -3.85,-18.34 -14.96,-27.5 -33.41,-27.5 l -114.44,30.46 z"
       id="path50" /><path
       style="fill:#21a19e"
       inkscape:connector-curvature="0"
       class="fil5"
       d="m 2276.47,3496.36 c -3.85,-15.53 1.02,-26.6 14.49,-33.42 l 40.52,-17.29 c 14.48,-3.97 25.15,0.89 31.93,14.48 l 8.72,18.78 -88.41,34.75 z m 195.61,-57.96 -82.65,33.26 -7.25,-18.77 c -12.54,-24.23 -31.78,-32.4 -57.95,-24.7 l -40.52,17.46 c -24.11,11.53 -32.37,30.31 -24.69,56.47 l 7.25,18.78 -82.5,33.41 c -24.23,12.55 -32.36,31.79 -24.68,57.96 l 65.19,159.39 c 12.58,23.06 31.94,30.88 57.97,23.06 l 286.97,-115.91 c 24.11,-13.45 32.26,-32.81 24.54,-57.96 l -63.72,-159.39 c -12.57,-24.11 -31.94,-31.79 -57.96,-23.06 z"
       id="path52" /><path
       style="fill:#21a19e"
       inkscape:connector-curvature="0"
       class="fil5"
       d="m 3102.37,1809.68 c 1.01,-13.45 8.72,-20.69 23.2,-21.74 h 39.04 c 13.6,1.05 20.84,8.29 21.74,21.74 v 17.45 h -83.98 z m 131.88,17.45 h -30.46 v -17.45 c -1.91,-24.11 -14.96,-37.12 -39.18,-39.04 h -39.04 c -25.12,1.92 -38.71,14.93 -40.65,39.04 v 17.45 h -30.31 c -24.23,2.95 -37.27,16.39 -39.18,40.5 v 152.14 c 1.91,25.16 14.96,38.72 39.18,40.66 h 179.63 c 24.11,-2.95 37.13,-16.43 39.03,-40.66 v -152.14 c -1.9,-24.11 -14.92,-37.56 -39.03,-40.5 z"
       id="path54" /><path
       style="fill:#21a19e"
       inkscape:connector-curvature="0"
       class="fil5"
       d="m 2590.95,2441.44 c 0,-5.76 2.81,-8.72 8.59,-8.72 h 14.48 c 5.91,0 9.19,2.95 10.2,8.72 v 5.77 h -33.27 z m 50.72,5.77 h -11.68 v -5.77 c -0.89,-9.62 -6.23,-14.92 -15.96,-15.96 h -14.48 c -9.63,1.05 -14.93,6.35 -15.84,15.96 v 5.77 h -11.67 c -9.63,1.94 -14.92,7.25 -15.96,15.96 v 147.85 c 1.05,9.63 6.34,14.92 15.96,15.96 h 69.64 c 9.62,-1.05 14.93,-6.34 15.82,-15.96 v -147.85 c -0.89,-9.62 -6.2,-14.92 -15.82,-15.96 z"
       id="path56" /><path
       style="fill:#21a19e"
       inkscape:connector-curvature="0"
       class="fil5"
       d="m 2712.63,1105.62 c 0,-7.82 3.85,-12.12 11.53,-13.15 h 21.74 c 7.72,1.04 12.12,5.34 13.01,13.15 v 8.57 h -46.27 v -8.57 z m 70.97,8.57 h -15.96 v -8.57 c -0.9,-13.58 -8.14,-20.83 -21.74,-21.74 h -21.74 c -12.54,0.91 -19.78,8.15 -21.73,21.74 v 8.57 h -15.96 c -13.45,1.95 -20.69,9.19 -21.74,21.74 v 84.12 c 1.05,13.48 8.29,20.73 21.74,21.74 h 97.13 c 13.47,-1.01 20.72,-8.25 21.74,-21.74 v -84.12 c -1.02,-12.55 -8.26,-19.79 -21.74,-21.74 z"
       id="path58" /><path
       style="fill:#21a19e"
       inkscape:connector-curvature="0"
       class="fil5"
       d="m 2374.94,1749.06 c 1.95,-23.21 14.49,-35.78 37.71,-37.7 h 66.67 c 23.21,1.92 35.76,14.49 37.7,37.7 v 28.97 h -142.09 v -28.97 z m 221.78,28.97 h -50.71 v -28.97 c -3.85,-40.66 -26.17,-62.83 -66.68,-66.68 h -66.67 c -40.52,3.85 -62.71,26.03 -66.68,66.68 v 28.97 h -52.04 c -40.66,4.76 -62.84,27.5 -66.68,68.02 v 259.47 c 3.85,40.51 26.02,62.71 66.68,66.53 h 302.79 c 41.53,-3.82 64.18,-26.02 68.01,-66.53 v -259.47 c -3.83,-41.53 -26.48,-64.17 -68.01,-68.02 z"
       id="path60" /><path
       style="fill:#21a19e"
       inkscape:connector-curvature="0"
       class="fil5"
       d="m 1515.78,2018.45 h -94.18 v -18.93 c 1.92,-15.38 10.2,-24.11 24.69,-26.02 h 44.8 c 14.49,1.91 22.78,10.64 24.69,26.02 z m 49.23,0 h -30.45 v -18.93 c -1.92,-27.04 -16.4,-41.98 -43.47,-44.94 h -44.8 c -26.16,2.95 -40.65,17.9 -43.47,44.94 v 18.93 h -30.46 c -27.06,2.81 -41.99,17.76 -44.95,44.8 v 318.76 c 2.95,26.16 17.88,40.66 44.95,43.47 H 1565 c 28.09,-1.92 43.04,-16.4 44.96,-43.47 v -318.76 c -1.92,-27.04 -16.86,-41.99 -44.96,-44.8 z"
       id="path62" /><path
       style="fill:#5e1f86"
       inkscape:connector-curvature="0"
       class="fil1"
       d="m 2883.55,1902.53 c -15.38,-4.87 -31.79,-7.83 -49.23,-8.73 -17.45,0.9 -33.86,3.85 -49.24,8.73 v -95.66 c 1.92,-16.44 10.64,-25.13 26.03,-26.17 h 46.42 c 15.39,1.05 24.11,9.74 26.02,26.17 z m 18.93,10.05 v -105.71 c -1.94,-28.08 -16.98,-43.47 -44.95,-46.43 h -46.42 c -27.96,2.95 -43.47,18.35 -46.28,46.43 v 105.71 c -41.56,24.22 -65.78,61.34 -72.45,111.62 0,1.92 0,4.29 0,7.25 v 234.63 c 2.81,28.98 18.31,44.52 46.27,46.43 h 191.32 c 27.96,-1.91 43.47,-17.45 46.28,-46.43 v -234.63 c 0,-2.95 -0.44,-5.33 -1.35,-7.25 -5.9,-50.28 -30.01,-87.4 -72.44,-111.62 z"
       id="path64" /><path
       style="fill:#21a19e"
       inkscape:connector-curvature="0"
       class="fil5"
       d="m 1757.82,1402.65 c 4.75,14.49 12.55,28.39 23.06,41.99 9.74,12.54 21.3,23.2 34.88,31.77 l -72.44,56.64 c -13.59,8.57 -25.7,7.25 -36.23,-4.44 l -26.16,-34.75 c -8.72,-12.58 -7.24,-24.11 4.43,-34.75 l 72.46,-56.47 z m -4.44,-21.74 -79.68,62.25 c -20.26,19.36 -23.22,40.07 -8.73,62.24 l 27.64,34.9 c 18.32,20.26 39.04,22.63 62.26,7.24 l 79.68,-60.91 c 43.47,17.45 85.92,13.47 127.45,-11.54 1.95,-1.05 3.97,-1.94 5.91,-2.95 l 178.16,-139.12 c 20.26,-18.35 23.22,-39.04 8.73,-62.25 l -113.1,-144.9 c -18.32,-20.26 -39.04,-23.21 -62.25,-8.72 l -178.16,139.12 c -1.95,1.92 -3.97,3.39 -5.91,4.29 -33.74,34.75 -47.76,74.94 -41.99,120.35 z"
       id="path66" /><path
       style="fill:#21a19e"
       inkscape:connector-curvature="0"
       class="fil5"
       d="m 2501.06,841.85 c -1.92,-4.86 -4.29,-9.16 -7.25,-13.01 -2.96,-4.86 -6.23,-8.26 -10.2,-10.21 l 23.21,-17.3 c 4.87,-1.94 8.73,-1.47 11.68,1.35 l 7.25,11.67 c 2.81,4.75 2.37,8.72 -1.48,11.53 z m 0,7.25 26.02,-18.78 c 6.81,-4.87 8.29,-11.21 4.44,-18.92 l -8.72,-11.54 c -4.87,-6.81 -11.1,-7.71 -18.78,-2.95 l -26.17,17.45 c -13.47,-5.77 -27.03,-5.34 -40.5,1.47 0,0.91 -0.47,1.35 -1.48,1.35 l -57.96,40.65 c -6.78,5.77 -7.71,12 -2.96,18.78 l 31.94,47.89 c 5.77,5.77 12.58,6.67 20.26,2.82 l 57.95,-40.51 c 0,0 0.47,-0.46 1.48,-1.48 11.53,-9.62 16.4,-21.73 14.49,-36.22 z"
       id="path68" /><path
       style="fill:#21a19e"
       inkscape:connector-curvature="0"
       class="fil5"
       d="m 2877.78,4141.13 -39.17,-10.2 -37.56,-8.73 4.28,-23.21 c 4.86,-11.54 13.47,-16.4 26.03,-14.49 l 36.22,8.73 c 11.67,3.85 16.98,12.11 15.96,24.69 z m 127.44,69.48 c 1.95,-25.12 -7.25,-40.07 -27.49,-44.94 l -83.98,-21.74 4.29,-21.74 c 3.85,-22.16 -5.3,-37.12 -27.5,-44.94 l -34.75,-8.58 c -23.21,-3.97 -38.16,5.3 -44.95,27.5 l -5.76,21.74 -85.47,-21.74 c -20.39,-4.86 -35.32,4.28 -44.94,27.5 L 2601,4259.84 c -3.85,22.2 5.35,37.24 27.5,44.95 l 158.06,39.18 159.38,39.03 c 22.16,2.95 37.13,-6.23 44.8,-27.5 l 14.48,-144.9 z"
       id="path70" /><path
       style="fill:#21a19e"
       inkscape:connector-curvature="0"
       class="fil5"
       d="m 2612.68,670.93 c 0,-5.9 3.28,-9.18 10.05,-10.19 h 17.45 c 5.77,1.01 8.73,4.29 8.73,10.19 v 8.59 h -36.23 z m 79.69,8.59 h -34.89 v -8.59 c -0.89,-10.65 -6.66,-16.43 -17.3,-17.44 h -17.45 c -11.53,1.01 -17.87,6.78 -18.77,17.44 v 8.59 h -34.75 c -10.66,0 -16.44,5.9 -17.45,17.44 v 147.85 c 1.01,10.53 6.78,16.4 17.45,17.3 h 123.16 c 10.52,-0.9 16.4,-6.77 17.3,-17.3 V 696.96 c -0.9,-11.54 -6.78,-17.44 -17.3,-17.44 z"
       id="path72" /><path
       style="fill:#f4a912"
       inkscape:connector-curvature="0"
       class="fil4"
       d="m 1179.57,2205.33 c 9.74,16.39 7.25,31.36 -7.25,44.94 l -46.27,31.79 c -16.44,9.74 -30.93,7.25 -43.47,-7.25 l -15.97,-21.74 98.48,-68.01 14.48,20.26 z m -224.58,127.44 92.84,-65.2 14.49,20.26 c 22.17,26.17 48.22,30.46 78.21,13.16 l 44.95,-31.94 c 26.03,-22.2 30.32,-48.34 13.02,-78.21 l -14.49,-20.26 92.7,-65.21 c 26.02,-23.2 30.46,-49.37 13.01,-78.36 l -124.63,-178.16 c -22.17,-26.02 -48.23,-30.46 -78.22,-13 l -323.06,228.86 c -26.16,22.2 -30.45,48.34 -13.01,78.21 l 125.98,176.83 c 22.19,26.03 48.33,30.46 78.21,13.01 z"
       id="path74" /><path
       style="fill:#f4a912"
       inkscape:connector-curvature="0"
       class="fil4"
       d="m 3450.11,1741.66 c 1.01,-10.63 7.25,-16.43 18.78,-17.44 h 30.46 c 11.67,0 17.87,5.76 18.92,17.44 v 14.49 h -68.16 z m 105.71,14.49 h -23.06 v -14.49 c -1.94,-19.35 -13.16,-29.99 -33.41,-31.93 h -30.46 c -19.25,1.94 -29.88,12.58 -31.79,31.93 v 14.49 h -24.69 c -19.24,0.9 -29.87,11.54 -31.79,31.79 v 123.16 c 1.92,19.36 12.55,30.03 31.79,31.94 h 143.41 c 19.36,-1.91 30.03,-12.57 31.94,-31.94 v -123.16 c -1.91,-20.26 -12.57,-30.89 -31.94,-31.79 z"
       id="path76" /><path
       style="fill:#f4a912"
       inkscape:connector-curvature="0"
       class="fil4"
       d="m 2150.36,2331.3 c 1.05,-6.66 4.44,-10.05 10.2,-10.05 h 18.78 c 6.81,0 10.66,3.39 11.67,10.05 v 8.72 h -40.66 v -8.72 z m 63.87,8.72 h -14.49 v -8.72 c -1.94,-11.54 -8.72,-17.77 -20.39,-18.78 h -18.78 c -11.53,1.01 -17.88,7.25 -18.77,18.78 v 8.72 h -14.49 c -11.68,1.01 -17.91,7.25 -18.93,18.92 v 73.78 c 1.02,11.68 7.25,17.91 18.93,18.93 h 86.93 c 11.54,-1.02 17.77,-7.25 18.78,-18.93 v -73.78 c -1.01,-11.67 -7.25,-17.91 -18.78,-18.92 z"
       id="path78" /><path
       style="fill:#f4a912"
       inkscape:connector-curvature="0"
       class="fil4"
       d="m 2418.41,2905.1 c 13.58,-18.35 30.46,-23.21 50.72,-14.48 l 57.95,30.45 c 18.46,12.58 23.22,29.45 14.49,50.72 l -13.01,24.69 -123.16,-66.68 13.01,-24.69 z m 178.31,127.59 -43.47,-23.21 13.01,-24.69 c 16.4,-36.66 7.71,-66.1 -26.02,-88.41 l -56.63,-31.79 c -37.56,-15.5 -67.57,-6.35 -89.75,27.51 l -13.01,24.68 -43.47,-23.22 c -37.69,-15.5 -67.69,-6.81 -89.88,26.03 l -120.2,223.11 c -15.54,37.7 -6.35,67.7 27.5,89.89 l 260.81,140.6 c 36.66,15.38 66.1,6.2 88.41,-27.65 l 120.2,-223.11 c 15.51,-36.66 6.24,-66.68 -27.5,-89.75 z"
       id="path80" /><path
       style="fill:#f4a912"
       inkscape:connector-curvature="0"
       class="fil4"
       d="m 2134.54,1557.6 -85.6,-39.03 8.72,-18.93 c 7.71,-12.55 18.92,-16.4 33.41,-11.54 l 39.04,17.3 c 13.59,8.73 17.88,20.41 13.01,34.9 l -8.57,17.29 z m 44.8,20.26 -27.5,-11.54 8.72,-18.78 c 8.73,-25.15 1.48,-44.51 -21.73,-57.96 l -39.18,-18.93 c -26.03,-9.62 -45.85,-2.37 -59.29,21.74 l -8.72,17.45 -27.5,-13.01 c -26.17,-8.73 -45.97,-1.48 -59.44,21.74 l -133.36,288.31 c -9.63,26.02 -2.38,45.85 21.73,59.43 l 175.36,81.03 c 26.02,9.73 45.84,2.48 59.43,-21.74 l 133.22,-288.31 c 9.73,-25.12 2.48,-44.95 -21.74,-59.43 z"
       id="path82" /><path
       style="fill:#f4a912"
       inkscape:connector-curvature="0"
       class="fil4"
       d="m 34.92,2686.29 30.46,57.96 -13.01,5.91 c -9.62,3.83 -17.45,1.34 -23.21,-7.24 l -14.49,-27.65 c -3.85,-9.62 -0.9,-17.3 8.72,-23.07 l 11.54,-5.91 z m -15.82,-31.79 10.05,20.26 -13.02,5.77 c -15.5,9.74 -19.82,23.21 -13.01,40.66 l 14.49,27.5 c 9.62,15.39 23.21,19.79 40.51,13.02 l 13.01,-5.78 10.21,18.78 c 9.62,15.51 23.2,19.82 40.5,13.01 L 317.46,2686.3 c 15.53,-9.62 19.82,-23.06 13.15,-40.51 l -60.92,-120.2 c -10.63,-15.54 -24.68,-19.82 -41.99,-13.15 L 32.1,2613.86 c -15.5,9.74 -19.82,23.22 -13.01,40.66 z"
       id="path84" /><path
       style="fill:#f4a912"
       inkscape:connector-curvature="0"
       class="fil4"
       d="m 2315.66,4404.75 c 21.16,7.71 43.47,11.68 66.53,11.68 22.32,0 44.05,-3.97 65.21,-11.68 v 127.59 c -1.92,22.17 -13.45,34.28 -34.75,36.23 h -60.77 c -22.31,-2.96 -34.31,-15.07 -36.22,-36.23 z m -26.16,-13.01 v 140.6 c 3.85,37.56 24.68,58.38 62.38,62.24 h 60.77 c 36.68,-3.85 57.06,-24.68 60.91,-62.24 v -140.6 c 56.01,-31.94 88.41,-81.6 96.99,-149.19 0,-2.95 0,-5.91 0,-8.72 v -314.47 c -2.81,-37.71 -23.06,-58.4 -60.77,-62.25 h -255.04 c -37.71,3.85 -58.42,24.54 -62.26,62.25 v 314.47 c 0,2.81 0,5.76 0,8.72 8.59,67.58 40.98,117.25 97,149.19 z"
       id="path86" /><path
       style="fill:#f4a912"
       inkscape:connector-curvature="0"
       class="fil4"
       d="m 3041.45,1408.42 -41.99,-31.94 -41.98,-31.79 17.44,-23.21 c 11.54,-13.59 25.02,-15.5 40.52,-5.77 l 37.7,28.98 c 13.47,11.54 15.38,24.55 5.76,39.04 z m 120.35,152.14 c 15.39,-30 11.99,-53.21 -10.2,-69.65 l -92.7,-69.48 17.45,-24.69 c 16.4,-26.02 13.02,-49.24 -10.2,-69.49 l -39.18,-28.97 c -25,-16.4 -48.22,-13.01 -69.48,10.19 l -17.45,23.08 -92.7,-69.5 c -22.16,-16.4 -45.38,-13.01 -69.49,10.21 l -136.17,136.17 c -16.43,26.02 -13.16,49.23 10.05,69.48 l 172.4,130.4 173.86,130.4 c 26.17,16.44 49.39,13.01 69.65,-10.05 l 94.18,-168.1 z"
       id="path88" /><path
       style="fill:#f4a912"
       inkscape:connector-curvature="0"
       class="fil4"
       d="m 2431.57,686.77 -14.48,8.71 -15.97,8.73 -4.44,-8.73 c -1.91,-4.75 -0.89,-8.71 2.95,-11.53 l 14.49,-8.73 c 4.86,-1.91 9.16,-1.01 13.02,2.95 l 4.43,8.59 z m 60.77,-15.84 c -6.77,-8.71 -14.02,-10.65 -21.74,-5.9 l -33.26,18.92 -4.44,-8.73 c -5.76,-7.7 -13.45,-9.62 -23.06,-5.76 l -13.16,7.25 c -8.57,6.78 -10.52,14.49 -5.76,23.21 l 4.44,8.58 -33.42,18.92 c -7.68,4.75 -9.62,12 -5.76,21.74 l 24.69,59.43 c 5.76,7.68 13.01,9.63 21.74,5.77 l 62.24,-36.22 60.92,-34.75 c 8.57,-6.81 10.51,-14.49 5.76,-23.22 l -39.18,-49.24 z"
       id="path90" /><path
       style="fill:#f4a912"
       inkscape:connector-curvature="0"
       class="fil4"
       d="m 2244.54,1059.2 -43.46,-31.94 8.71,-13.01 c 6.81,-6.79 13.6,-7.68 20.26,-2.81 l 21.73,14.49 c 5.92,6.65 6.81,13.9 2.96,21.72 l -10.21,11.55 z m 62.4,79.68 c 8.72,-15.5 7.24,-27.5 -4.44,-36.22 l -49.24,-36.23 10.2,-13 c 7.68,-13.6 5.77,-25.6 -5.76,-36.23 l -20.41,-14.49 c -13.45,-8.72 -25.55,-7.25 -36.21,4.29 l -10.06,13.01 -47.9,-36.23 c -11.53,-8.57 -23.65,-7.25 -36.22,4.44 l -70.97,72.45 c -8.73,13.47 -7.25,25.58 4.43,36.22 l 91.23,68.02 91.22,68.16 c 12.57,8.72 24.69,6.78 36.22,-5.77 l 47.91,-88.41 z"
       id="path92" /><path
       style="fill:#5e1f86"
       inkscape:connector-curvature="0"
       class="fil1"
       d="m 2651.72,1580.81 c 1.02,-8.73 5.76,-13.48 14.49,-14.49 h 23.21 c 7.71,1.01 12.11,5.76 13.01,14.49 V 1591 h -50.71 z m 110.15,10.19 h -49.24 v -10.19 c -1.01,-15.51 -8.72,-23.65 -23.21,-24.69 h -23.21 c -15.39,1.05 -23.66,9.18 -24.55,24.69 V 1591 h -47.91 c -15.38,0.91 -23.64,9.16 -24.54,24.55 v 91.37 c 0.9,15.4 9.15,23.66 24.54,24.55 h 168.11 c 14.49,-0.89 22.19,-9.15 23.21,-24.55 v -91.37 c -1.02,-15.38 -8.72,-23.64 -23.21,-24.55 z"
       id="path94" /><path
       style="fill:#5e1f86"
       inkscape:connector-curvature="0"
       class="fil1"
       d="m 2269.24,3336.97 -24.7,-13.15 1.48,-4.29 c 2.95,-3.85 6.35,-4.86 10.2,-2.95 l 11.54,5.92 c 3.85,1.91 4.87,5.3 2.95,10.05 l -1.47,4.44 z m 13.01,7.25 -8.73,-4.44 2.95,-5.76 c 2.96,-6.77 1.02,-12.57 -5.76,-17.45 l -11.68,-5.76 c -6.65,-2.81 -12.54,-0.9 -17.3,5.76 l -2.95,4.44 -7.25,-2.95 c -7.68,-3.85 -14.02,-2.38 -18.77,4.44 l -43.47,83.98 c -2.95,7.7 -1.02,13.46 5.76,17.44 l 50.71,27.5 c 7.71,2.81 13.48,0.89 17.45,-5.76 l 43.47,-84.13 c 3.82,-6.78 2.37,-12.55 -4.44,-17.3 z"
       id="path96" /><path
       style="fill:#5e1f86"
       inkscape:connector-curvature="0"
       class="fil1"
       d="m 2382.18,1262.04 -37.56,10.21 -39.17,10.05 -5.76,-21.74 c -1.95,-13.47 3.38,-22.17 15.96,-26.03 l 34.75,-8.72 c 13.47,-2.96 22.16,1.91 26.02,14.49 l 5.76,21.73 z m 144.9,1.48 c -9.62,-23.21 -24.55,-31.94 -44.8,-26.17 l -84.12,21.74 -5.76,-23.06 c -7.71,-21.3 -22.75,-30.03 -44.96,-26.17 l -36.22,8.73 c -21.27,7.71 -30.46,22.76 -27.5,44.95 l 5.77,23.22 -83.98,20.26 c -20.26,5.76 -29.45,21.26 -27.5,46.27 l 15.83,143.57 c 7.82,21.16 23.2,30.31 46.42,27.5 l 157.91,-40.66 157.91,-40.5 c 21.3,-7.71 30.02,-22.76 26.16,-44.95 l -55.15,-134.7 z"
       id="path98" /><path
       style="fill:#d12c42"
       inkscape:connector-curvature="0"
       class="fil2"
       d="m 2466.31,2747.21 c -6.81,-4.87 -8.73,-11.11 -5.77,-18.78 l 11.54,-18.93 c 3.86,-6.78 9.63,-8.72 17.45,-5.76 l 8.57,4.29 -23.06,43.47 -8.72,-4.28 z m 59.44,-88.42 -21.74,40.66 -10.2,-4.43 c -12.58,-5.77 -22.75,-2.82 -30.46,8.72 l -11.53,20.26 c -4.86,13.59 -1.47,24.23 10.06,31.93 l 8.71,4.3 -21.73,40.66 c -5.76,12.55 -2.82,22.63 8.72,30.31 l 78.22,42.14 c 12.57,5.76 22.75,2.81 30.46,-8.73 l 76.73,-142.08 c 5.92,-12.55 2.96,-22.64 -8.57,-30.32 l -78.36,-42.14 c -12.55,-5.76 -22.63,-2.81 -30.31,8.73 z"
       id="path100" /><path
       style="fill:#d12c42"
       inkscape:connector-curvature="0"
       class="fil2"
       d="m 3677.65,1959.02 c -4.87,4.75 -10.2,5.29 -15.97,1.46 l -15.96,-11.67 c -4.86,-4.75 -5.34,-10.05 -1.48,-15.96 l 5.76,-7.25 33.42,26.17 -5.76,7.25 z m -68.16,-63.73 33.26,24.55 -5.77,7.25 c -6.77,10.64 -5.76,20.26 2.95,28.97 l 15.97,11.67 c 10.52,6.67 20.26,5.31 28.98,-4.43 l 5.76,-5.76 31.79,24.68 c 10.66,6.67 20.39,5.31 28.97,-4.43 l 47.9,-62.25 c 6.78,-9.74 5.31,-18.93 -4.44,-27.5 L 3681.9,1801.1 c -9.62,-6.81 -18.77,-5.91 -27.5,2.82 l -47.89,62.38 c -6.67,10.52 -5.77,20.26 2.95,28.98 z"
       id="path102" /><path
       style="fill:#d13a2c"
       inkscape:connector-curvature="0"
       class="fil6"
       d="m 2276.47,1680.75 c -3.85,3.85 -8.26,4.44 -13.01,1.48 l -11.68,-8.72 c -3.82,-2.81 -4.28,-6.79 -1.33,-11.54 l 4.29,-5.76 24.69,20.26 z m -50.71,-46.27 23.21,18.77 -2.95,4.29 c -4.75,7.83 -3.85,15.07 2.95,21.74 l 11.54,8.72 c 6.81,4.86 13.59,3.85 20.26,-2.81 l 4.44,-5.91 23.21,18.93 c 7.67,4.75 14.92,3.85 21.73,-2.96 l 34.75,-44.95 c 4.76,-7.68 3.85,-14.93 -2.95,-21.74 l -82.49,-63.72 c -7.83,-4.75 -15.07,-3.85 -21.74,2.96 l -34.89,46.27 c -4.75,6.81 -3.83,13.6 2.95,20.41 z"
       id="path104" /><path
       style="fill:#e3034d"
       inkscape:connector-curvature="0"
       class="fil3"
       d="m 2596.72,1312.76 c -3.85,3.85 -7.71,4.29 -11.67,1.48 l -13.02,-8.73 c -2.81,-3.86 -3.39,-7.71 -1.47,-11.54 l 4.43,-5.91 26.02,20.39 -4.28,4.3 z m -50.71,-46.43 24.55,17.45 -4.29,5.77 c -4.87,7.7 -3.86,14.95 2.95,21.73 l 11.54,8.73 c 7.71,4.86 14.95,3.85 21.73,-2.95 l 2.95,-5.77 24.55,18.92 c 7.71,4.75 14.96,3.83 21.74,-2.95 l 34.75,-46.42 c 4.87,-7.68 3.96,-14.49 -2.81,-20.26 l -84.12,-65.2 c -7.68,-4.75 -14.49,-3.85 -20.26,2.95 l -36.22,46.27 c -4.75,7.83 -3.85,15.07 2.95,21.74 z"
       id="path106" /><path
       style="fill:#d12c42"
       inkscape:connector-curvature="0"
       class="fil2"
       d="m 2259.03,862.11 c 2.96,10.64 -0.44,17.88 -10.05,21.74 l -28.97,10.2 c -10.64,1.92 -17.88,-1.95 -21.74,-11.68 l -4.43,-13.01 60.91,-20.26 z m -136.17,31.94 57.97,-20.26 4.43,13.01 c 7.67,17.3 20.69,23.64 39.03,18.78 l 28.98,-8.73 c 16.43,-7.68 22.75,-20.69 18.93,-39.04 l -4.44,-13.01 57.96,-18.93 c 17.45,-7.67 24.23,-20.72 20.26,-39.03 l -37.56,-113.1 c -7.83,-16.4 -20.84,-22.64 -39.17,-18.77 l -204.33,68 c -16.4,7.83 -22.64,20.85 -18.77,39.18 l 37.69,111.63 c 7.68,17.3 20.69,24.11 39.04,20.26 z"
       id="path108" /><path
       style="fill:#f4a912"
       inkscape:connector-curvature="0"
       class="fil4"
       d="m 3142.87,4300.52 -18.77,-4.44 -18.78,-5.76 2.82,-10.21 c 1.94,-5.76 5.77,-8.14 11.67,-7.25 l 18.78,4.44 c 5.76,1.92 8.26,5.77 7.25,11.54 l -2.96,11.68 z m 62.4,33.26 c 1.9,-11.53 -2.5,-18.77 -13.01,-21.73 l -42.15,-10.2 2.96,-10.05 c 1.91,-11.68 -2.38,-19.36 -13.02,-23.21 l -17.45,-4.29 c -11.53,-1.05 -19.24,3.83 -23.2,14.49 l -1.35,10.05 -42.13,-10.05 c -9.62,-1.95 -16.86,2.37 -21.74,13.01 l -27.5,66.67 c -0.89,11.54 3.86,18.78 14.49,21.74 l 76.88,20.26 78.22,18.78 c 11.54,1.01 19.24,-3.85 23.21,-14.49 l 5.77,-70.97 z"
       id="path110" /><path
       style="fill:#f3a112"
       inkscape:connector-curvature="0"
       class="fil7"
       d="m 4690.42,2615.32 c 3.85,-7.68 10.05,-10.64 18.78,-8.72 l 23.21,10.2 c 8.73,3.85 11.54,10.19 8.73,18.77 l -4.44,10.2 -50.71,-18.78 z m 105.72,53.67 -49.24,-18.93 4.29,-10.05 c 4.86,-15.5 0,-26.59 -14.49,-33.4 l -23.06,-10.05 c -15.54,-3.85 -26.6,0.89 -33.42,14.48 l -4.29,11.54 -49.23,-18.77 c -14.49,-4.87 -25.7,0 -33.41,14.48 l -36.23,92.7 c -3.85,15.5 1.02,26.6 14.49,33.26 l 169.59,65.2 c 15.38,4.87 26.48,0 33.26,-14.49 l 36.22,-92.7 c 3.86,-15.38 -0.9,-26.48 -14.48,-33.26 z"
       id="path112" /><path
       style="fill:#21a19e"
       inkscape:connector-curvature="0"
       class="fil5"
       d="m 4181.81,2328.49 14.49,13.01 14.49,11.54 -7.25,8.72 c -3.85,4.86 -8.72,5.33 -14.49,1.48 l -13.01,-11.55 c -4.86,-4.86 -5.33,-9.73 -1.47,-14.48 z m -40.51,-57.97 c -6.81,10.64 -6.34,19.25 1.34,26.03 l 33.41,27.5 -7.25,8.72 c -6.81,8.73 -6.34,16.98 1.48,24.69 l 14.49,11.54 c 8.57,5.76 16.86,4.86 24.55,-2.82 l 7.25,-7.25 33.41,26.03 c 6.66,6.78 14.92,6.23 24.55,-1.48 l 52.18,-46.27 c 6.79,-9.74 6.24,-18.46 -1.47,-26.16 l -60.77,-50.72 -60.91,-50.71 c -8.72,-6.78 -16.86,-6.23 -24.69,1.48 l -37.56,59.43 z"
       id="path114" /><path
       style="fill:#d12c42"
       inkscape:connector-curvature="0"
       class="fil2"
       d="m 2515.55,3729.52 c 2.95,-2.81 6.22,-3.27 10.2,-1.34 l 11.53,8.58 c 2.96,2.95 3.4,6.35 1.48,10.2 l -4.44,4.29 -21.74,-17.3 2.96,-4.44 z m 31.94,31.94 -8.73,-5.77 4.29,-4.43 c 3.85,-7.68 2.95,-13.91 -2.81,-18.78 l -10.21,-8.73 c -6.78,-4.75 -13.01,-3.85 -18.77,2.96 l -4.44,4.28 -7.25,-7.25 c -6.77,-3.85 -13.01,-2.81 -18.77,2.96 l -31.94,40.51 c -4.75,6.81 -3.85,13.01 2.95,18.93 l 46.27,37.55 c 7.84,3.97 14.05,2.95 18.93,-2.81 l 31.79,-40.66 c 4.87,-6.66 4.44,-13.01 -1.33,-18.77 z"
       id="path116" /><path
       style="fill:#d12c42"
       inkscape:connector-curvature="0"
       class="fil2"
       d="m 2647.43,3945.53 -21.74,28.97 -5.76,-4.44 c -4.87,-3.85 -5.91,-8.14 -2.95,-13.01 l 10.2,-13.01 c 3.83,-4.86 8.57,-5.76 14.49,-2.95 l 5.76,4.43 z m 11.54,-14.49 -7.25,8.58 -5.76,-4.29 c -9.63,-4.86 -17.88,-3.39 -24.7,4.29 l -10.05,13.15 c -4.86,8.57 -3.4,16.4 4.28,23.06 l 5.76,5.91 -7.24,8.58 c -4.75,8.72 -3.27,16.98 4.43,24.69 l 97,72.44 c 9.73,4.87 17.9,3.39 24.68,-4.28 l 43.47,-59.44 c 5.77,-8.72 4.87,-16.98 -2.95,-24.69 l -98.47,-72.44 c -8.72,-4.75 -16.4,-3.39 -23.21,4.43 z"
       id="path118" /><path
       style="fill:#d12c42"
       inkscape:connector-curvature="0"
       class="fil2"
       d="m 2583.7,3326.77 -24.68,-1.47 1.48,-5.77 c 0,-2.95 2.37,-4.86 7.25,-5.76 l 10.05,1.48 c 3.96,0.89 5.9,3.27 5.9,7.25 v 4.28 z m 13.02,1.48 h -8.73 l 1.48,-5.76 c 0,-6.82 -3.39,-10.66 -10.2,-11.68 l -11.53,-1.48 c -6.81,0 -11.11,3.43 -13.01,10.2 v 5.77 l -7.25,-1.48 c -7.83,0 -12.12,3.43 -13.16,10.2 l -7.25,82.65 c 0,6.67 3.42,10.52 10.2,11.53 l 50.71,4.29 c 6.78,0 10.64,-3.27 11.55,-10.05 l 7.24,-81.17 c 0,-6.77 -3.27,-11.1 -10.05,-13.01 z"
       id="path120" /><path
       style="fill:#21a19e"
       inkscape:connector-curvature="0"
       class="fil5"
       d="m 2153.31,2912.35 23.22,14.49 -2.95,4.44 c -2.82,3.83 -6.24,4.75 -10.05,2.81 l -10.21,-5.77 c -3.85,-2.95 -4.86,-6.23 -2.95,-10.2 l 2.95,-5.76 z m -13.01,-7.25 8.73,4.44 -2.96,5.76 c -3.85,6.78 -2.37,12.55 4.29,17.3 l 10.2,5.92 c 6.78,3.83 12.58,2.37 17.45,-4.44 l 2.82,-4.29 7.24,4.29 c 7.71,2.95 13.59,1.47 17.45,-4.29 l 46.27,-78.21 c 3.97,-7.83 2.5,-13.59 -4.28,-17.45 l -47.77,-28.98 c -6.81,-2.95 -12.57,-1.47 -17.44,4.29 l -46.43,78.36 c -2.81,7.68 -1.33,13.45 4.44,17.3 z"
       id="path122" /><path
       style="fill:#f4a912"
       inkscape:connector-curvature="0"
       class="fil4"
       d="m 1569.45,4375.77 13.02,28.98 -5.77,2.95 c -5.91,0.9 -9.73,-0.46 -11.68,-4.44 l -5.76,-13.01 c -1.9,-5.76 -0.45,-9.62 4.29,-11.53 l 5.91,-2.96 z m -7.25,-14.49 4.29,8.73 -5.76,2.95 c -7.71,4.75 -10.2,11.07 -7.25,18.78 l 5.76,13.01 c 3.86,8.73 10.2,11.68 18.78,8.73 l 5.91,-2.96 4.29,8.73 c 4.87,7.7 11.53,10.2 20.26,7.25 l 95.66,-41.99 c 7.71,-4.87 10.2,-11.1 7.25,-18.78 l -26.03,-59.43 c -3.96,-7.71 -10.2,-10.2 -18.91,-7.25 l -97,41.98 c -7.82,4.87 -10.2,11.54 -7.25,20.26 z"
       id="path124" /><path
       style="fill:#f3a112"
       inkscape:connector-curvature="0"
       class="fil7"
       d="m 1707.1,1893.81 c -5.91,-2.95 -12.57,-4.44 -20.39,-4.44 -6.67,0 -13.01,1.48 -18.78,4.44 v -39.17 c 0,-6.78 3.38,-10.06 10.2,-10.06 h 18.77 c 5.76,0 9.16,3.28 10.2,10.06 z m 8.58,2.81 v -41.98 c -1.92,-11.54 -8.15,-17.88 -18.78,-18.77 h -18.77 c -11.67,0.89 -17.91,7.24 -18.92,18.77 v 41.98 c -16.41,9.75 -26.03,24.69 -28.98,44.95 0,1.02 0,1.95 0,2.96 v 95.66 c 1.01,11.53 7.25,17.76 18.92,18.77 h 76.74 c 11.53,-1.91 17.88,-8.26 18.77,-18.77 v -95.66 c 0,-1.02 0,-1.95 0,-2.96 -2.81,-20.26 -12.54,-35.2 -28.97,-44.95 z"
       id="path126" /><path
       style="fill:#f4a912"
       inkscape:connector-curvature="0"
       class="fil4"
       d="m 2601,1486.63 c -2.81,-1.01 -6.23,-1.48 -10.05,-1.48 -3.96,-0.89 -7.82,-0.44 -11.67,1.48 v -21.74 c 1.02,-3.85 2.95,-5.76 5.77,-5.76 h 10.19 c 3.86,0 5.76,1.91 5.76,5.76 z m 4.44,1.47 v -23.21 c 0,-5.76 -3.42,-9.15 -10.2,-10.19 h -10.19 c -5.77,1.04 -9.16,4.43 -10.06,10.19 v 23.21 c -8.72,5.77 -14.05,14.04 -15.96,24.55 0,1.05 0,1.48 0,1.48 v 53.67 c 1.01,5.76 4.29,9.15 10.2,10.05 h 41.99 c 6.78,-0.91 10.64,-4.29 11.53,-10.05 v -53.67 c -0.89,0 -1.48,-0.44 -1.48,-1.48 -0.89,-10.51 -6.2,-18.77 -15.82,-24.55 z"
       id="path128" /></g><path
     inkscape:connector-curvature="0"
     style="fill:url(#linearGradient4769);stroke-width:0.33505538"
     id="path130"
     d="m 2306.6171,3251.9107 c -81.0097,44.9242 -198.2187,105.7938 -374.297,285.7252 58.7888,-146.4058 94.6598,-189.6514 132.052,-233.1952 9.6127,-11.1976 11.881,-24.5864 6.6374,-40.2368 -8.4266,-23.4706 -26.8949,-40.2368 -55.2272,-51.4109 -32.6176,-12.2898 -54.7715,-6.7011 -69.0716,19.001 -104.5239,193.3437 -179.2848,368.8089 -210.9308,486.152 -31.646,117.3498 -38.9602,195.5818 -29.3743,245.8737 2.0606,7.8235 5.0593,16.7628 11.4086,25.7021 17.366,23.4706 36.3871,36.8829 59.6701,37.9986 21.0548,1.1191 32.9527,-12.3803 34.3934,-39.1144 5.3676,-99.5851 35.7169,-280.2604 116.3212,-358.0134 42.1399,341.0596 167.0854,592.6025 534.152,430.1844 28.215,-12.4842 79.7532,-29.3811 76.4094,-63.5869 -5.237,-53.572 -80.2492,-5.0526 -82.7386,-3.8497 -310.8477,150.2756 -397.2953,-149.542 -442.6082,-418.6283 47.3668,-42.5587 144.3519,-97.6016 239.7154,-169.8228 51.4913,-38.9971 98.9787,-67.7147 130.5577,-71.1993 18.2404,-2.0137 29.5988,-10.0584 33.8607,-22.3515 6.4866,-18.9977 1.4273,-35.7639 -17.0409,-52.5267 -26.121,-24.5863 -58.0786,-26.5665 -93.8893,-6.7078 z m 1156.9094,3.9168 c 2.0137,-12.4875 -1.7088,-23.8459 -9.8708,-35.2009 -16.5081,-21.5742 -38.1728,-31.7934 -63.8917,-30.6576 -25.5345,0 -38.8329,13.6234 -41.9389,39.7409 -8.3629,86.2969 -37.2347,189.628 -85.3252,308.8575 -46.9814,119.2261 -96.7706,221.4213 -148.9957,304.314 -51.116,82.8927 -87.684,123.7661 -110.9971,123.7661 -21.0951,0 -31.7063,-37.4692 -29.4313,-113.5469 2.275,-76.0777 14.337,-164.6496 36.5512,-267.9806 22.2142,-103.3278 49.8194,-191.8997 81.338,-263.434 5.3442,-12.4875 5.1398,-24.9817 -2.8379,-37.4726 -12.9934,-22.7067 -35.221,-36.3334 -66.5051,-42.0126 -33.5022,-5.6792 -54.2086,5.6792 -63.0407,32.9292 -64.2368,198.7114 -100.7813,363.3609 -105.9646,471.2354 -3.0557,53.3676 -1.4944,98.7877 4.4931,137.3961 16.2904,112.4145 79.8169,145.3437 135.3255,145.3437 38.8597,0 85.7976,-36.3368 140.998,-110.1428 55.2004,-73.8093 106.3164,-156.6987 152.42,-249.8106 47.3902,-94.2477 86.843,-180.5446 120.9382,-261.1656 34.0986,-80.621 53.2537,-130.5811 56.7316,-152.1553 z m 10.2929,220.7546 c -9.9579,-8.9225 -16.592,-20.2742 -14.92,-33.9914 1.4172,-11.613 6.2889,-21.9561 13.4591,-31.1333 7.0563,-9.0264 15.3255,-16.994 24.8511,-23.3802 7.3142,-4.9052 16.3875,-10.0818 25.3335,-11.6867 8.0045,-1.2699 15.7979,0.201 21.3431,6.1181 4.7644,4.8416 7.6359,10.9262 8.8488,17.3525 1.4776,6.9156 1.4105,14.0858 0.4523,21.065 -0.9616,6.9926 -2.7944,13.8947 -5.7864,20.0664 -3.2501,7.1334 -7.9107,13.4592 -13.4223,19.0077 -5.6122,5.6423 -11.8811,10.4906 -18.8268,14.3806 -6.3661,3.5683 -13.1543,6.2186 -20.3513,7.5119 -7.6124,1.3738 -15.2952,0.2245 -20.9778,-5.3139 z m 308.3849,149.7229 c 3.0893,-0.3016 6.2388,-0.5428 9.2911,-0.5428 3.6354,0 7.7499,0.2111 10.8893,2.2247 1.8529,1.1861 3.0792,2.7743 3.7627,4.865 1.099,3.3841 0.5495,7.4651 -0.06,10.9094 -1.1023,6.2287 -3.6555,13.3654 -5.7462,19.3394 -4.1312,11.7973 -8.6679,23.5176 -13.1576,35.1842 -7.3545,19.0982 -14.8095,38.1595 -22.3382,57.194 -1.5915,4.0139 -3.2467,8.0379 -4.7477,12.3233 -1.4441,3.8297 -2.9083,7.6527 -4.3725,11.4723 -1.6786,4.3691 -3.3137,8.7516 -4.9588,13.3553 -2.3655,6.1985 -4.7343,12.3971 -7.1132,18.5922 -1.2196,4.272 -2.0539,8.6579 -2.6168,13.0571 -0.5193,4.0174 -0.6299,8.2625 0.037,12.2698 0.3652,2.208 1.0721,4.3255 2.5799,6.0042 1.6082,1.3301 5.1263,1.5412 7.006,1.5412 4.1714,0 12.9331,-5.6222 16.2535,-7.8872 10.2695,-7.006 19.9626,-15.2953 29.1733,-23.6314 11.613,-10.5107 22.9312,-21.3498 34.0249,-32.41 11.2779,-11.2411 22.5224,-22.5358 33.4754,-34.0918 4.0441,-11.737 8.8789,-23.2294 14.1594,-34.4571 11.7705,-25.022 26.3756,-48.5663 43.6008,-70.2075 17.2017,-21.6178 37.3385,-40.5049 60.2932,-55.9007 22.2577,-14.9267 46.8709,-23.6113 73.7658,-23.6113 11.8308,0 23.4538,2.8881 32.9359,10.2124 8.4099,6.5035 14.7424,14.709 19.4098,24.2413 3.5348,7.2238 6.2085,14.7558 7.9006,22.5727 5.3307,-9.797 11.9078,-19.718 19.651,-26.2952 10.1488,-8.6276 22.9412,-11.6498 36.0151,-11.6498 7.5354,0 15.369,1.1325 21.735,4.9454 6.0143,3.3941 11.9246,8.7617 10.5643,16.4344 -0.2211,1.2465 -0.6232,2.2751 -1.3101,3.3406 -2.8044,4.3724 -5.592,8.8119 -8.5338,13.0906 -2.0707,3.0088 -4.0709,6.0645 -6.0109,9.157 -2.3286,3.7024 -4.3792,7.5656 -6.289,11.7203 -3.4611,7.1366 -6.6877,14.4342 -9.9679,21.983 -3.6052,7.6292 -6.7346,16.2334 -9.8305,24.1005 -6.0913,15.4996 -12.4507,30.8988 -18.8737,46.2644 -8.1251,19.4366 -16.2066,38.8899 -24.0737,58.4303 -5.1532,12.7992 -10.303,25.5983 -15.436,38.4041 8.8856,-5.3006 17.6071,-10.8759 26.1611,-16.6724 16.7394,-11.3349 33.1939,-23.092 49.2397,-35.3818 13.5966,-10.4169 26.9351,-21.1856 39.9219,-32.3597 6.8385,-18.4481 16.3004,-35.9816 26.9887,-52.4596 15.2718,-23.5376 32.9628,-45.3229 52.8483,-65.1079 19.2925,-19.1887 40.726,-35.9213 64.4077,-49.3671 20.8639,-11.8442 43.9961,-20.1435 68.224,-20.1435 17.0476,0 36.1491,3.451 46.7905,18.2002 9.3145,12.9097 10.1789,28.2384 6.5536,43.3126 -0.023,0.1038 -0.05,0.191 -0.077,0.2948 -4.6439,16.8198 -12.1257,32.3027 -22.5023,46.3482 -9.9713,13.5028 -21.2627,25.9668 -33.8272,37.1074 -12.1324,10.7553 -24.9449,20.7199 -38.4376,29.7127 -12.1256,8.0849 -24.3485,16.0525 -36.7656,23.6784 -11.9045,7.3143 -23.8694,14.5213 -35.8409,21.7216 -8.7617,5.2705 -17.4765,10.6414 -26.064,16.1933 -0.8108,7.8704 -0.908,16.6623 1.29,23.9732 1.8998,6.3225 4.8684,12.4037 9.4687,17.2084 4.1681,4.3524 9.2844,7.2238 15.0172,9.0264 6.6307,2.0841 13.6099,2.9552 20.5489,2.9552 18.2639,0 36.6785,-6.8921 52.6339,-15.302 21.3262,-11.2411 41.6205,-24.3283 60.9566,-38.7056 20.1167,-14.9602 39.5365,-30.8519 58.0818,-47.7152 11.3115,-10.2862 22.5359,-20.6796 33.586,-31.2439 1.9299,-4.9186 3.8565,-9.8372 5.773,-14.7659 5.5686,-14.3169 11.3483,-28.5568 17.2118,-42.7531 7.4014,-17.9221 14.9669,-35.7772 22.7603,-53.5318 0.6668,-1.5245 1.5882,-2.6771 2.925,-3.6688 4.3826,-3.2501 9.1906,-6.145 14.0255,-8.1486 4.4026,-1.9601 9.0263,-3.5382 13.7272,-4.6036 4.8281,-1.6988 9.8305,-2.8313 14.9166,-3.4009 0.3552,-0.04 0.6601,-0.057 1.022,-0.057 4.4562,0 8.9024,0.2546 13.3218,0.8644 4.1513,0.5763 8.1854,1.6585 12.1658,2.9653 0.1072,0.037 0.1944,0.067 0.2982,0.1072 4.6238,1.692 8.8991,4.292 12.4473,7.7197 3.039,2.9384 3.6823,7.4114 1.5915,11.0869 -2.342,4.1179 -4.5902,8.2726 -6.7279,12.4976 7.4483,-6.3325 15.235,-12.2429 23.3567,-17.7144 11.4757,-7.7297 23.6885,-14.3269 36.5412,-19.47 12.3769,-4.9455 25.4541,-7.9207 38.8195,-7.9207 11.3081,0 21.6982,3.1227 30.3862,10.4637 8.5975,7.2607 13.7741,17.1247 16.612,27.8867 3.3003,12.521 3.1562,26.0807 1.625,38.8564 -1.9667,16.3808 -7.5689,32.5472 -14.3135,47.2964 l -14.3002,33.3447 c -5.1967,12.7153 -10.6782,25.3268 -16.2401,37.8914 -7.1233,16.0927 -14.6621,32.0045 -22.5325,47.7454 -3.6387,8.0011 -6.9222,17.1079 -7.7699,25.7356 -0.03,0.3987 -0.07,1.3302 0.047,1.8596 0.8644,0.3853 2.8747,0.4757 3.6186,0.4757 9.6127,0 24.6935,-9.8003 32.2423,-15.0909 17.0812,-11.9715 33.1973,-25.4474 48.5094,-39.5968 16.6623,-15.3991 32.7416,-31.4114 48.3552,-47.8694 12.1223,-12.779 24.3417,-25.8461 35.7102,-39.5298 2.7139,-3.1462 5.6155,-6.2119 8.765,-8.9359 3.307,-3.9503 6.5939,-7.9207 9.8573,-11.9112 6.9792,-8.5272 14.1394,-16.8801 21.333,-25.2297 2.7173,-3.1529 7.0697,-7.7833 9.462,-11.3349 0.6533,-2.4325 -0.7237,-6.4365 -1.5513,-8.4635 -4.1078,-10.102 -2.2415,-20.626 2.3052,-30.2086 4.674,-9.854 12.1893,-19.1417 19.5739,-27.0926 9.3346,-10.0584 19.909,-18.867 31.1501,-26.7173 10.772,-7.5254 22.4186,-13.935 34.8491,-18.2739 11.412,-3.9805 23.799,-4.9857 34.7251,1.0085 0.2681,0.1474 0.4926,0.2848 0.7506,0.4556 6.2622,4.2653 11.8877,9.5424 15.9855,15.7443 4.8784,7.0931 6.0109,15.178 2.9317,23.2394 -0.1508,0.4021 -0.3083,0.7372 -0.516,1.1158 -2.0003,3.6688 -4.4194,7.264 -6.6843,10.5241 -3.6287,5.4915 -8.1151,10.772 -12.4205,15.7442 -6.1148,7.0596 -12.7422,13.8512 -19.4098,20.4384 -0.2647,8.9996 -0.027,18.0494 0.9281,26.9988 0.8778,8.2222 2.0505,16.4076 3.5013,24.5495 1.3235,7.4181 2.9184,15.0037 5.4279,22.3448 2.9552,9.3514 6.0947,18.6458 9.3347,27.9034 55.4248,154.2294 -103.2172,235.3597 -171.5149,183.731 -9.4217,-7.1233 -17.2285,-15.704 -23.2763,-25.8428 -5.3977,-9.0432 -9.6027,-18.7564 -11.6633,-29.1197 -1.8026,-9.0632 -1.7423,-19.0579 3.7594,-26.6939 3.5817,-5.2101 7.4047,-10.6212 11.68,-15.2952 4.2518,-4.9454 9.5491,-9.3816 14.6922,-13.362 0.1876,-0.1475 0.3551,-0.2647 0.5562,-0.3988 2.9518,-1.95 5.9807,-3.8028 9.2776,-5.7261 4.138,-2.2482 8.6981,-3.9335 13.0002,-5.2134 5.6825,-1.8328 11.3651,-3.6454 17.0778,-5.3743 2.6369,-0.7941 5.2201,-0.4423 7.5488,1.0387 2.3252,1.4809 3.7392,3.6688 4.1379,6.3962 1.7121,11.804 3.7359,24.2044 6.9859,35.6934 22.0835,66.1768 60.9399,23.2931 48.7305,-43.1149 -2.1913,-11.9313 -4.7846,-23.7889 -7.6561,-35.5795 -2.724,-11.1909 -5.076,-22.4755 -7.006,-33.8339 -1.6987,-7.2238 -2.9753,-14.5146 -3.9369,-21.5575 -0.4657,-2.724 -0.9482,-5.448 -1.424,-8.1954 -1.4876,1.7054 -2.9652,3.4041 -4.4294,5.0928 -8.4065,9.72 -17.1682,19.1451 -25.8428,28.6238 -8.5171,9.3011 -17.1448,18.5084 -25.9199,27.5683 -5.5686,5.7529 -11.1104,11.6064 -16.7796,17.2554 -0.064,0.064 -0.1239,0.1206 -0.1842,0.1776 -10.1589,12.4372 -20.8773,24.4356 -31.9074,36.1022 -13.0236,13.7741 -26.4057,27.2132 -40.1128,40.3072 -13.8512,13.2346 -28.4227,25.7188 -43.7683,37.1877 -13.7574,10.2795 -28.3658,19.7616 -43.7314,27.4612 -12.7455,6.3861 -26.9485,11.2243 -41.3425,11.2243 -11.4656,0 -23.3199,-1.8026 -33.3983,-7.5655 -8.812,-5.0392 -15.8414,-11.8007 -20.6193,-20.7768 -4.8215,-9.0565 -6.8653,-19.0278 -6.6777,-29.2503 0.2078,-11.4221 3.2702,-22.6933 7.5254,-33.2342 3.957,-9.8171 8.3897,-19.5102 12.9364,-29.066 6.0981,-12.8092 11.985,-25.7189 17.825,-38.6487 6.2052,-13.7439 12.1525,-27.6018 17.9221,-41.5334 4.9521,-11.9515 9.539,-24.3284 12.8226,-36.8528 2.0271,-7.7297 3.8565,-17.0375 3.1864,-24.8577 -0.067,-0.6031 -0.2748,-2.2751 -0.6903,-2.7676 -0.2814,-0.1374 -0.9549,-0.1173 -1.2564,-0.1173 -7.5857,0 -15.5164,3.2702 -22.0366,6.8988 -10.189,5.6658 -19.718,12.9868 -28.5166,20.5959 -11.0937,9.6027 -21.5139,20.043 -31.455,30.8284 -10.7821,11.7035 -21.3464,23.6047 -31.7833,35.6164 -6.3895,14.5448 -12.6082,29.1632 -18.6727,43.8454 -4.7846,11.5862 -9.5289,23.1892 -14.1896,34.8256 -3.7124,9.2677 -7.4214,18.5788 -11.4086,27.5516 -3.1261,7.3914 -6.2622,14.7894 -9.2107,22.2544 -0.087,0.2211 -0.1708,0.4121 -0.2747,0.6266 -3.9805,8.2189 -12.1893,14.2867 -19.9157,18.7329 -8.9627,5.1599 -18.361,9.3011 -28.1681,12.5646 -8.2558,2.7441 -17.4028,5.0124 -26.1444,5.0124 -11.3684,0 -19.8319,-7.4717 -15.2953,-19.068 2.4292,-7.0093 5.8099,-14.3337 8.7818,-21.1252 5.4916,-12.5512 11.0401,-25.0823 16.525,-37.6368 2.1309,-4.8784 4.2686,-9.7535 6.3995,-14.6319 -17.0107,14.4074 -34.7586,27.9403 -53.2537,40.4044 -23.5979,15.9017 -48.5763,29.7026 -74.8312,40.7025 -22.7269,9.5223 -47.1457,16.029 -71.9197,16.029 -13.3687,0 -26.342,-3.4309 -38.5046,-8.8354 -13.764,-6.1181 -25.2229,-15.5264 -34.447,-27.4075 -10.6347,-13.6904 -16.5316,-30.4398 -19.5471,-47.3567 -0.7439,-4.1681 -1.2096,-8.3831 -1.4441,-12.6149 -9.8037,7.9609 -19.7616,15.7242 -29.8836,23.2696 -18.9641,14.1394 -38.518,27.5416 -58.6749,39.9219 -14.6821,9.0163 -29.5083,18.1164 -44.6193,26.4325 -7.0429,17.6407 -14.193,35.2679 -21.6815,52.7176 -5.4781,12.7522 -10.8055,25.5848 -15.8347,38.5213 -5.897,15.1646 -11.6633,30.3762 -17.5334,45.5475 -7.5254,19.4566 -15.3322,38.8094 -23.3031,58.0885 -8.5372,20.6562 -17.8015,41.0074 -27.7024,61.0471 -9.3079,18.8368 -19.4701,37.3955 -31.0094,54.9692 -9.5893,14.5984 -20.5489,28.8751 -33.3983,40.7628 -80.6277,74.6135 -257.4968,-108.0821 35.0769,-325.8346 12.8997,-9.6027 25.7122,-19.3227 38.5984,-28.9388 10.8424,-8.0949 21.8356,-15.9721 32.9159,-23.7353 1.6451,-3.8129 3.2801,-7.6326 4.9152,-11.4488 -8.2993,6.4196 -17.0074,12.3267 -26.0974,17.6741 -21.9931,12.9298 -45.8323,19.5606 -71.3434,19.5606 -25.3536,0 -44.3814,-11.7471 -55.9107,-34.3164 -6.9691,-13.6468 -9.5625,-29.6893 -9.8808,-45.5407 -13.0537,13.3888 -26.4727,26.4258 -40.2736,39.0406 -10.4403,9.5458 -22.509,20.1268 -34.9362,27.4712 -6.5537,3.6354 -13.5698,6.3493 -20.7601,8.4367 -7.3813,2.1511 -14.9904,3.5348 -22.6564,4.1044 -7.3109,0.5462 -14.6151,0.2245 -21.5876,-1.3201 -6.6945,-1.3234 -13.027,-3.9067 -18.5186,-7.9944 -0.2445,-0.1809 -0.4422,-0.3451 -0.6667,-0.5461 -5.8199,-5.2504 -9.2978,-12.1726 -11.3885,-19.6343 -2.1344,-7.6091 -3.0658,-15.962 -3.679,-23.8224 -0.1574,-2.0506 -0.2311,-4.1313 -0.2311,-6.2321 -9.4218,9.6228 -19.6846,18.4247 -30.8352,25.7491 -14.8932,9.7836 -31.1769,19.0512 -48.0235,24.9917 -16.0893,5.6759 -32.8321,9.2174 -49.8596,10.3666 -0.2178,0.017 -0.3987,0.02 -0.6165,0.02 -9.7099,0 -18.5855,-3.4846 -26.6,-8.7819 -9.8607,-6.5201 -16.1128,-16.4311 -20.0296,-27.4008 -4.1815,-11.7035 -5.0225,-24.9348 -4.4496,-37.4994 -1.2866,1.1158 -2.5698,2.2248 -3.8632,3.3305 -19.4499,16.679 -39.7342,32.6411 -61.1174,46.7737 -13.4826,8.9058 -33.0599,20.3479 -49.5782,21.2325 -9.9243,0.5294 -19.5303,-1.022 -28.7075,-4.8449 -8.7885,-3.6588 -16.7126,-8.8656 -23.4137,-15.6371 -6.7279,-6.7982 -11.8308,-14.8195 -15.2718,-23.5108 -3.8933,-9.2006 -5.0962,-19.0881 -3.9905,-28.9957 0.9918,-17.5536 5.2403,-36.4574 9.4519,-53.4782 5.7429,-23.1892 12.5847,-46.0902 20.5557,-68.6126 8.0379,-22.7201 17.2955,-44.9946 27.7291,-66.7163 8.0414,-16.7527 18.3979,-35.345 31.5556,-48.8812 5.257,-5.2068 12.9331,-8.105 19.9558,-9.988 7.8504,-2.1075 15.7979,-3.7962 23.8124,-5.1263 7.4182,-1.2263 14.9033,-2.0171 22.4152,-2.322 3.957,-0.1575 11.0937,-0.5662 14.7693,0.9147 1.491,0.5998 2.6402,1.4441 3.6588,2.6905 5.4882,6.7011 -2.4426,19.5371 -5.4313,25.8127 -5.7495,12.0653 -11.7772,24.0168 -17.8517,35.9213 -7.2272,14.1628 -14.6352,28.2384 -22.0634,42.3007 -6.0612,11.4757 -12.0888,23.1255 -17.4497,34.9429 -4.7109,10.3935 -9.6596,20.6964 -14.6285,30.9692 -5.2939,10.9429 -10.4102,21.983 -15.2417,33.1403 -4.1714,9.6362 -7.8704,19.5338 -10.7519,29.639 -1.1895,4.1748 -3.1361,12.3535 -1.692,16.6523 0.1038,0.3049 0.1775,0.5696 0.2479,0.8845 0.4624,2.0305 1.6887,6.3795 3.0859,7.6561 0.9783,0.8309 2.0639,1.1995 3.3505,1.1995 11.144,0 27.3908,-9.4922 36.4574,-15.302 18.5855,-11.9079 36.3032,-25.2397 53.2906,-39.3255 16.8867,-13.9986 33.3748,-28.5098 49.2363,-43.6711 10.9161,-22.1438 23.9398,-43.1216 39.1982,-62.5448 18.887,-24.0436 39.8716,-46.7134 63.312,-66.3879 19.1887,-16.1061 40.4446,-31.2137 63.1781,-41.902 14.8027,-6.9591 34.3465,-14.5347 51.0021,-13.0303 0.325,0.03 0.6065,0.07 0.9281,0.134 12.1558,2.3689 24.9214,6.3895 34.9966,13.8077 0.1206,0.087 0.2211,0.1675 0.3417,0.2613 8.9962,7.2975 12.8125,17.7646 13.4156,29.0694 0.4825,9.0599 -3.2266,18.5353 -8.3093,27.1998 z m -54.7413,34.6815 c -2.4023,0.5797 -4.865,0.9851 -7.2539,1.2833 -3.9772,0.5026 -7.9275,1.2565 -11.8543,2.084 -3.7359,0.7874 -7.3813,-0.7069 -9.4955,-3.8899 -2.1108,-3.1831 -2.0706,-7.1233 0.1072,-10.2594 3.5818,-5.1699 7.6929,-11.7002 9.6396,-17.7211 0.9113,-2.8111 2.1477,-6.8921 2.1778,-10.055 0.01,-0.1307 0.01,-0.2781 0.01,-0.4289 -5.5452,1.7155 -15.4528,8.7014 -18.227,10.762 -20.9577,15.5734 -42.4415,43.2121 -58.0819,63.9755 -9.5826,12.722 -17.8886,26.3487 -24.8477,40.679 -6.423,13.2213 -12.0285,26.915 -16.4478,40.9404 -3.297,10.4705 -6.0444,21.658 -6.9022,32.6277 -0.201,2.5699 -0.5696,10.695 0.6199,12.8193 2.7541,3.3438 5.9304,4.8817 10.2728,4.7242 6.5972,-0.2412 13.2648,-2.4459 19.1953,-5.2369 8.1586,-3.8397 15.9185,-8.6377 23.2126,-13.9282 7.7666,-5.6323 15.2149,-11.737 22.1941,-18.3242 5.897,-5.5686 11.6834,-11.3584 16.9839,-17.5 1.7189,-1.9935 6.0914,-7.0964 7.0429,-9.5256 0.047,-0.1206 0.087,-0.2211 0.1407,-0.3417 5.1766,-11.9414 10.2192,-23.9364 15.436,-35.8577 5.6357,-12.8761 11.0636,-25.8662 16.0224,-39.0205 3.4678,-9.2006 6.9323,-18.4683 10.0516,-27.8029 z m 320.6246,109.5062 c 3.4477,-5.716 6.7212,-11.5628 9.9142,-17.4262 3.7158,-6.8218 7.063,-13.8512 9.9311,-21.065 2.1041,-5.3039 3.9771,-11.0802 4.7377,-16.7594 -4.8215,-1.9534 -8.1218,-6.0846 -9.9545,-11.4723 -1.4173,-4.6372 -2.1276,-9.5659 -2.3789,-14.3974 -0.2614,-5.0694 -0.087,-10.1488 0.516,-15.188 0.4657,-3.8934 0.8209,-7.8001 1.0587,-11.3986 0.2982,-9.6898 0.087,-25.3034 -4.9018,-33.9713 -2.3287,-4.0474 -5.4547,-7.6225 -10.4269,-7.6225 -12.3837,0 -23.7588,5.9908 -33.3314,13.4022 -13.5932,10.5275 -25.3838,23.3701 -35.5024,37.2347 -11.5695,15.8515 -21.2794,32.9527 -29.2269,50.8882 -7.3913,16.6758 -13.4558,34.2863 -16.6422,52.2787 -2.5632,14.4912 -4.3289,32.7517 -0.091,47.0921 3.3439,11.3148 15.5567,12.9197 25.8261,12.9197 9.6362,0 18.6994,-2.7843 27.1328,-7.3411 9.6764,-5.2268 18.9105,-11.3483 27.3975,-18.3509 7.8336,-6.4633 15.3287,-13.5296 21.8824,-21.2995 4.8215,-5.7161 9.5692,-11.546 14.059,-17.5301 z m -81.1002,208.7295 c -0.3217,0.2982 -0.65,0.5997 -0.9717,0.9013 -0.1507,0.144 -0.2848,0.2579 -0.4523,0.392 -154.8291,126.3225 -134.0992,272.3866 -84.511,189.3063 11.4086,-19.1183 21.276,-39.9688 30.3962,-60.0788 3.7526,-8.6947 7.4248,-17.4229 11.0971,-26.1511 5.5384,-13.1409 11.1338,-26.2549 16.8532,-39.3187 6.8854,-15.7141 13.5497,-31.5288 20.157,-47.3635 2.4626,-5.9037 4.942,-11.8006 7.4281,-17.6909 z m 344.8357,-258.0195 c 7.6928,-4.6908 15.2617,-9.5993 22.7067,-14.6721 17.1414,-11.68 38.0455,-26.6804 51.5683,-42.5152 6.6475,-7.7866 15.5332,-19.2388 18.3477,-29.2503 0.7773,-2.7642 2.8647,-11.422 1.4173,-14.1795 -0.8008,-1.5279 -2.0774,-1.5983 -3.7393,-1.5983 -5.6993,0 -13.7171,4.6473 -18.3275,7.6259 -10.179,6.5704 -19.4131,15.5734 -27.4243,24.6065 -11.0367,12.4372 -20.6528,26.4459 -29.3006,40.6221 -5.7462,9.4184 -10.7921,19.259 -15.2483,29.3642 z m -1880.495,-98.2215 c 3.0892,-0.3015 6.2387,-0.5428 9.2911,-0.5428 3.6286,0 7.7398,0.2111 10.8792,2.2147 1.8629,1.1895 3.0993,2.791 3.7795,4.8985 1.0889,3.3741 0.5427,7.4517 -0.067,10.886 -1.1023,6.2253 -3.6588,13.3654 -5.7495,19.3394 -4.1312,11.7973 -8.6679,23.5175 -13.1576,35.1842 -7.3545,19.0981 -14.8095,38.1594 -22.3382,57.1906 -1.5881,4.0139 -3.25,8.0346 -4.7511,12.3334 -1.4474,3.8263 -2.9082,7.6493 -4.3758,11.4689 -1.6786,4.3691 -3.3103,8.755 -4.9555,13.3553 -2.3654,6.1985 -4.7343,12.3971 -7.1132,18.5922 -1.2196,4.2686 -2.0505,8.6545 -2.6134,13.0538 -0.516,4.0173 -0.6299,8.2625 0.037,12.2731 0.3653,2.208 1.0689,4.3289 2.58,6.0042 1.6049,1.3301 5.1263,1.5412 7.0026,1.5412 4.1748,0 12.9365,-5.6189 16.2569,-7.8872 10.2695,-7.006 19.9593,-15.2986 29.1699,-23.6314 11.6131,-10.5107 22.9346,-21.3498 34.0283,-32.41 11.3583,-11.3215 22.6732,-22.7067 33.7132,-34.3431 9.4687,-9.9813 18.9776,-19.9392 28.5702,-29.8066 6.021,-6.1951 12.129,-12.4004 17.9724,-18.7631 0.134,-0.1474 0.2513,-0.2647 0.392,-0.402 5.1129,-4.9253 11.2042,-9.1437 18.3108,-10.4504 7.5689,-1.3938 14.6151,1.1258 18.351,8.3429 3.2902,6.7178 1.6317,14.4576 -0.955,21.0951 -3.4544,8.8622 -10.2057,17.2453 -16.4612,24.0167 -11.2411,12.7422 -22.6598,25.3302 -34.1958,37.8043 -14.0589,15.2015 -28.3423,30.1952 -42.753,45.065 -13.7775,14.2164 -27.9604,28.0408 -42.5722,41.4028 -10.4403,9.5457 -22.509,20.1268 -34.9329,27.4712 -6.5536,3.6353 -13.5697,6.3459 -20.7566,8.4367 -7.3847,2.151 -14.9971,3.5348 -22.6632,4.1044 -7.3142,0.5461 -14.6117,0.2245 -21.591,-1.3201 -6.691,-1.3235 -13.0269,-3.9068 -18.5185,-7.9944 -0.2412,-0.181 -0.4422,-0.3452 -0.6634,-0.5462 -5.8199,-5.2503 -9.3011,-12.1726 -11.3919,-19.6342 -2.1343,-7.6058 -3.0657,-15.9621 -3.6789,-23.8225 -0.1608,-2.0472 -0.2345,-4.1279 -0.2312,-6.2287 -9.4217,9.6195 -19.6845,18.4214 -30.8318,25.7457 -14.8932,9.7836 -31.1769,19.0513 -48.0234,24.9918 -16.086,5.6758 -32.8355,9.214 -49.8596,10.3666 -0.2178,0.017 -0.3987,0.02 -0.6165,0.02 -9.7099,0 -18.5889,-3.4846 -26.6034,-8.7818 -9.8607,-6.5202 -16.1128,-16.4311 -20.0296,-27.4008 -4.9153,-13.7608 -5.2135,-29.6457 -4.0241,-44.0632 1.7122,-20.7499 9.2844,-42.5319 17.1884,-61.6703 12.8326,-31.0529 29.3207,-60.2195 50.0908,-86.6587 18.887,-24.0436 39.8716,-46.7134 63.312,-66.3879 19.1887,-16.1061 40.4479,-31.2137 63.1814,-41.902 14.7994,-6.9591 34.3466,-14.5347 50.9988,-13.0303 0.325,0.03 0.6065,0.07 0.9248,0.134 12.1591,2.3689 24.9214,6.3862 35.0032,13.8077 0.1206,0.087 0.2211,0.1675 0.3418,0.2613 8.9995,7.2975 12.8091,17.768 13.4122,29.0694 0.4825,9.0599 -3.2266,18.5353 -8.3094,27.1998 z m -54.7414,34.6816 c -2.4023,0.5796 -4.8616,0.9851 -7.2472,1.2833 -3.9805,0.5025 -7.9341,1.2564 -11.861,2.084 -3.7358,0.7874 -7.3812,-0.707 -9.4954,-3.89 -2.1109,-3.183 -2.0707,-7.1233 0.1072,-10.2594 3.5817,-5.1699 7.6929,-11.7001 9.6395,-17.7211 0.908,-2.8077 2.1511,-6.8954 2.1812,-10.0449 0.01,-0.1341 0.01,-0.2848 0.01,-0.439 -5.5452,1.7122 -15.4561,8.6981 -18.227,10.762 -20.9644,15.5768 -42.4415,43.2088 -58.0852,63.9755 -9.5826,12.7221 -17.8853,26.3521 -24.8477,40.6791 -6.4197,13.2213 -12.0252,26.915 -16.4446,40.9404 -3.2969,10.4705 -6.0477,21.658 -6.9054,32.6277 -0.2011,2.5699 -0.5696,10.695 0.6198,12.8192 2.7542,3.3439 5.9238,4.8818 10.2728,4.7243 6.6006,-0.2413 13.2649,-2.4459 19.1987,-5.2369 8.1586,-3.8398 15.9185,-8.6378 23.2093,-13.9283 7.7699,-5.6323 15.2182,-11.737 22.1974,-18.3242 5.897,-5.5686 11.68,-11.3583 16.9806,-17.4999 1.7222,-1.9936 6.0913,-7.0965 7.0429,-9.5256 0.047,-0.1206 0.087,-0.2212 0.1407,-0.3418 5.1766,-11.9414 10.2225,-23.933 15.4393,-35.8576 5.6357,-12.8762 11.0602,-25.8663 16.019,-39.0206 3.4679,-9.1972 6.929,-18.4682 10.0517,-27.8029 z"
     class="fil8" /></g>
 </g>
</svg>